G75*
G70*
%OFA0B0*%
%FSLAX24Y24*%
%IPPOS*%
%LPD*%
%AMOC8*
5,1,8,0,0,1.08239X$1,22.5*
%
%ADD10R,0.0433X0.0394*%
%ADD11C,0.0560*%
%ADD12R,0.0394X0.0433*%
%ADD13C,0.0680*%
%ADD14R,0.0591X0.0630*%
%ADD15R,0.0472X0.0472*%
%ADD16R,0.0712X0.0712*%
%ADD17C,0.0160*%
%ADD18C,0.0100*%
%ADD19C,0.0440*%
%ADD20C,0.0660*%
D10*
X009339Y003765D03*
X009339Y004434D03*
X010366Y004434D03*
X010366Y003765D03*
X010340Y008070D03*
X010340Y008739D03*
X009421Y008727D03*
X009421Y008057D03*
X009357Y012452D03*
X009357Y013122D03*
X010358Y013144D03*
X010358Y012475D03*
X010361Y016475D03*
X010361Y017144D03*
X009298Y017151D03*
X009298Y016481D03*
X009350Y020670D03*
X009350Y021340D03*
X010388Y021349D03*
X010388Y020680D03*
X010403Y024803D03*
X010403Y025472D03*
X009326Y025466D03*
X009326Y024797D03*
X017028Y024719D03*
X017028Y025388D03*
X018006Y025412D03*
X018006Y024743D03*
X018051Y021322D03*
X018051Y020653D03*
X016976Y020633D03*
X016976Y021302D03*
X016931Y017281D03*
X016931Y016612D03*
X018011Y016626D03*
X018011Y017296D03*
X017991Y013147D03*
X017991Y012478D03*
X016934Y012447D03*
X016934Y013117D03*
X016964Y008682D03*
X016964Y008013D03*
X017993Y008012D03*
X017993Y008681D03*
X018049Y004506D03*
X018049Y003836D03*
X016986Y003832D03*
X016986Y004501D03*
D11*
X015911Y004307D02*
X015911Y004867D01*
X014911Y004867D02*
X014911Y004307D01*
X013911Y004307D02*
X013911Y004867D01*
X014064Y008551D02*
X014064Y009111D01*
X015064Y009111D02*
X015064Y008551D01*
X016064Y008551D02*
X016064Y009111D01*
X016071Y012818D02*
X016071Y013378D01*
X015071Y013378D02*
X015071Y012818D01*
X014071Y012818D02*
X014071Y013378D01*
X014038Y017156D02*
X014038Y017716D01*
X015038Y017716D02*
X015038Y017156D01*
X016038Y017156D02*
X016038Y017716D01*
X015950Y021231D02*
X015950Y021791D01*
X014950Y021791D02*
X014950Y021231D01*
X013950Y021231D02*
X013950Y021791D01*
X014050Y025278D02*
X014050Y025838D01*
X015050Y025838D02*
X015050Y025278D01*
X016050Y025278D02*
X016050Y025838D01*
X008366Y025867D02*
X008366Y025307D01*
X007366Y025307D02*
X007366Y025867D01*
X006366Y025867D02*
X006366Y025307D01*
X006336Y021752D02*
X006336Y021192D01*
X007336Y021192D02*
X007336Y021752D01*
X008336Y021752D02*
X008336Y021192D01*
X008353Y017622D02*
X008353Y017062D01*
X007353Y017062D02*
X007353Y017622D01*
X006353Y017622D02*
X006353Y017062D01*
X006343Y013425D02*
X006343Y012865D01*
X007343Y012865D02*
X007343Y013425D01*
X008343Y013425D02*
X008343Y012865D01*
X008349Y009066D02*
X008349Y008506D01*
X007349Y008506D02*
X007349Y009066D01*
X006349Y009066D02*
X006349Y008506D01*
X006330Y004829D02*
X006330Y004269D01*
X007330Y004269D02*
X007330Y004829D01*
X008330Y004829D02*
X008330Y004269D01*
D12*
X008018Y005856D03*
X007348Y005856D03*
X007525Y010154D03*
X008194Y010154D03*
X008159Y014395D03*
X007490Y014395D03*
X007354Y018558D03*
X008023Y018558D03*
X008050Y022709D03*
X007381Y022709D03*
X007383Y026783D03*
X008053Y026783D03*
X015022Y026793D03*
X015692Y026793D03*
X015643Y022734D03*
X014973Y022734D03*
X015052Y018659D03*
X015721Y018659D03*
X015753Y014495D03*
X015083Y014495D03*
X015076Y010143D03*
X015745Y010143D03*
X015563Y005886D03*
X014894Y005886D03*
D13*
X014090Y007010D03*
X014111Y002793D03*
X010467Y002763D03*
X010428Y006981D03*
X010462Y011239D03*
X010450Y015534D03*
X010431Y019653D03*
X010425Y023804D03*
X014080Y023855D03*
X014086Y019744D03*
X014104Y015600D03*
X014105Y011291D03*
X018090Y007010D03*
X018111Y002793D03*
X018105Y011291D03*
X018104Y015600D03*
X018086Y019744D03*
X018080Y023855D03*
X006425Y023804D03*
X006431Y019653D03*
X006450Y015534D03*
X006462Y011239D03*
X006428Y006981D03*
X006467Y002763D03*
D14*
X010292Y005468D03*
X010288Y009862D03*
X010344Y014164D03*
X010281Y018288D03*
X010230Y022419D03*
X010278Y026511D03*
X018084Y026567D03*
X018055Y022472D03*
X018047Y018383D03*
X018064Y014280D03*
X018107Y009885D03*
X018072Y005528D03*
D15*
X016792Y005135D03*
X016792Y005922D03*
X016828Y009491D03*
X016828Y010278D03*
X016785Y013886D03*
X016785Y014673D03*
X016768Y017990D03*
X016768Y018777D03*
X016775Y022078D03*
X016775Y022865D03*
X016805Y026174D03*
X016805Y026961D03*
X008998Y026904D03*
X008998Y026117D03*
X008950Y022812D03*
X008950Y022025D03*
X009002Y018682D03*
X009002Y017894D03*
X009064Y014557D03*
X009064Y013770D03*
X009009Y010256D03*
X009009Y009469D03*
X009013Y005861D03*
X009013Y005074D03*
D16*
X002075Y005955D03*
X002075Y007333D03*
X002075Y008711D03*
X002075Y010089D03*
X002075Y011467D03*
X002075Y012845D03*
X002075Y014223D03*
X002075Y015601D03*
X002075Y016979D03*
X002075Y018357D03*
X002075Y019735D03*
X002075Y021113D03*
X002075Y022491D03*
X002075Y023869D03*
D17*
X003601Y023869D01*
X003601Y028851D01*
X013601Y028851D01*
X013601Y025558D01*
X014050Y025558D01*
X015001Y025601D02*
X015001Y026771D01*
X015022Y026793D01*
X015692Y026793D02*
X016637Y026793D01*
X016805Y026961D01*
X016858Y025558D02*
X016050Y025558D01*
X016858Y025558D02*
X017028Y025388D01*
X017028Y024719D02*
X017119Y024719D01*
X017801Y025401D01*
X017995Y025401D01*
X018006Y025412D01*
X019451Y025412D01*
X018101Y024051D02*
X018101Y023875D01*
X018080Y023855D01*
X018101Y024051D02*
X018006Y024146D01*
X018006Y024743D01*
X016775Y022865D02*
X016644Y022734D01*
X015643Y022734D01*
X014973Y022734D02*
X014973Y021534D01*
X014950Y021511D01*
X014950Y020608D01*
X014086Y019744D01*
X015052Y018659D02*
X015052Y017450D01*
X015038Y017436D01*
X015038Y016534D01*
X014104Y015600D01*
X015083Y014495D02*
X015083Y013111D01*
X015071Y013098D01*
X015071Y012257D01*
X014105Y011291D01*
X015076Y010143D02*
X015076Y008843D01*
X015064Y008831D01*
X015064Y007984D01*
X014090Y007010D01*
X014894Y005886D02*
X014894Y004605D01*
X014911Y004587D01*
X014911Y003593D01*
X014111Y002793D01*
X013911Y004587D02*
X012351Y004587D01*
X012351Y027601D01*
X004851Y027601D01*
X004851Y016979D01*
X002075Y016979D01*
X002075Y018357D02*
X004601Y018357D01*
X004601Y027851D01*
X012601Y027851D01*
X012601Y008831D01*
X014064Y008831D01*
X015745Y010143D02*
X016692Y010143D01*
X016828Y010278D01*
X016815Y008831D02*
X016064Y008831D01*
X016815Y008831D02*
X016964Y008682D01*
X016964Y008013D02*
X017113Y008013D01*
X017751Y008651D01*
X017962Y008651D01*
X017993Y008681D01*
X019451Y008681D01*
X017993Y008012D02*
X017993Y007108D01*
X018090Y007010D01*
X016792Y005922D02*
X016756Y005886D01*
X015563Y005886D01*
X015911Y004587D02*
X016900Y004587D01*
X016986Y004501D01*
X016986Y003832D02*
X017182Y003832D01*
X017851Y004501D01*
X018044Y004501D01*
X018049Y004506D01*
X019451Y004506D01*
X018049Y002856D02*
X018111Y002793D01*
X018049Y002856D02*
X018049Y003836D01*
X018105Y011291D02*
X017991Y011405D01*
X017991Y012478D01*
X017945Y013101D02*
X017751Y013101D01*
X017326Y012676D01*
X017097Y012447D01*
X016934Y012447D01*
X016916Y013098D02*
X016934Y013117D01*
X016916Y013098D02*
X016071Y013098D01*
X015753Y014495D02*
X016607Y014495D01*
X016785Y014673D01*
X018011Y015693D02*
X018104Y015600D01*
X018011Y015693D02*
X018011Y016626D01*
X018011Y017296D02*
X019451Y017296D01*
X017751Y017301D02*
X017062Y016612D01*
X016931Y016612D01*
X016931Y017281D02*
X016777Y017436D01*
X016038Y017436D01*
X014038Y017436D02*
X013101Y017436D01*
X013101Y028351D01*
X004101Y028351D01*
X004101Y021113D01*
X002075Y021113D01*
X002075Y022491D02*
X003851Y022491D01*
X003851Y028601D01*
X013351Y028601D01*
X013351Y021511D01*
X013950Y021511D01*
X014080Y023855D02*
X015043Y024818D01*
X015043Y025558D01*
X015001Y025601D01*
X015043Y025558D02*
X015050Y025558D01*
X012851Y028101D02*
X012851Y013098D01*
X014071Y013098D01*
X011701Y013151D02*
X010358Y013151D01*
X010358Y013144D01*
X010265Y013051D01*
X010051Y013051D01*
X009452Y012452D01*
X009357Y012452D01*
X009357Y013122D02*
X009333Y013145D01*
X008343Y013145D01*
X008159Y014395D02*
X009002Y014395D01*
X009064Y014557D01*
X009298Y016481D02*
X009431Y016481D01*
X010051Y017101D01*
X010318Y017101D01*
X010361Y017144D01*
X010361Y017151D01*
X011701Y017151D01*
X009520Y020670D02*
X010151Y021301D01*
X010340Y021301D01*
X010388Y021349D01*
X010388Y021351D01*
X011701Y021351D01*
X010425Y023804D02*
X010403Y023826D01*
X010403Y024803D01*
X010382Y025451D02*
X010151Y025451D01*
X009497Y024797D01*
X009326Y024797D01*
X009326Y025466D02*
X009205Y025587D01*
X008366Y025587D01*
X008053Y026783D02*
X009028Y026783D01*
X008998Y026904D01*
X010403Y025472D02*
X010382Y025451D01*
X010403Y025472D02*
X011701Y025472D01*
X012851Y028101D02*
X004351Y028101D01*
X004351Y019735D01*
X002075Y019735D01*
X002075Y015601D02*
X005101Y015601D01*
X005101Y025601D01*
X006366Y025601D01*
X006366Y025587D01*
X007366Y025587D02*
X007366Y024745D01*
X006425Y023804D01*
X007381Y022709D02*
X007336Y022664D01*
X007336Y021472D01*
X007336Y020557D01*
X006431Y019653D01*
X007354Y018558D02*
X007354Y017393D01*
X007353Y017342D01*
X007353Y016437D01*
X006450Y015534D01*
X007490Y014395D02*
X007490Y013292D01*
X007343Y013145D01*
X007343Y012120D01*
X006462Y011239D01*
X005851Y011467D02*
X005851Y013151D01*
X006343Y013151D01*
X006343Y013145D01*
X005601Y012845D02*
X005601Y017351D01*
X006353Y017351D01*
X006353Y017342D01*
X008023Y018558D02*
X008978Y018558D01*
X009002Y018682D01*
X009107Y017342D02*
X008353Y017342D01*
X009107Y017342D02*
X009298Y017151D01*
X009350Y020670D02*
X009520Y020670D01*
X009350Y021340D02*
X009218Y021472D01*
X008336Y021472D01*
X008050Y022709D02*
X009047Y022709D01*
X008950Y022812D01*
X007366Y025587D02*
X007366Y026766D01*
X007383Y026783D01*
X006336Y021472D02*
X006336Y021451D01*
X005351Y021451D01*
X005351Y014223D01*
X002075Y014223D01*
X002075Y012845D02*
X005601Y012845D01*
X005851Y011467D02*
X002075Y011467D01*
X002075Y010089D02*
X006349Y010089D01*
X006349Y008786D01*
X005751Y008711D02*
X005751Y004551D01*
X006330Y004551D01*
X006330Y004549D01*
X007330Y004549D02*
X007330Y003626D01*
X006467Y002763D01*
X007330Y004549D02*
X007348Y004567D01*
X007348Y005856D01*
X008018Y005856D02*
X009057Y005856D01*
X009013Y005861D01*
X009224Y004549D02*
X008330Y004549D01*
X009224Y004549D02*
X009339Y004434D01*
X009339Y003765D02*
X009515Y003765D01*
X010151Y004401D01*
X010332Y004401D01*
X010366Y004434D01*
X010366Y004401D01*
X011701Y004401D01*
X010366Y002864D02*
X010467Y002763D01*
X010366Y002864D02*
X010366Y003765D01*
X010428Y006981D02*
X010340Y007069D01*
X010340Y008070D01*
X010252Y008651D02*
X010101Y008651D01*
X009507Y008057D01*
X009421Y008057D01*
X009421Y008727D02*
X009362Y008786D01*
X008349Y008786D01*
X007525Y008961D02*
X007349Y008786D01*
X007349Y007902D01*
X006428Y006981D01*
X007525Y008961D02*
X007525Y010154D01*
X008194Y010154D02*
X009057Y010154D01*
X009009Y010256D01*
X010358Y011343D02*
X010462Y011239D01*
X010358Y011343D02*
X010358Y012475D01*
X010340Y008751D02*
X011701Y008751D01*
X010340Y008751D02*
X010340Y008739D01*
X010252Y008651D01*
X017945Y013101D02*
X017991Y013147D01*
X019451Y013147D01*
X017233Y020633D02*
X016976Y020633D01*
X017233Y020633D02*
X017851Y021251D01*
X017980Y021251D01*
X018051Y021322D01*
X019451Y021322D01*
X016976Y021302D02*
X016768Y021511D01*
X015950Y021511D01*
D18*
X017851Y020651D02*
X017851Y019651D01*
X018086Y019744D01*
X018051Y020653D02*
X017851Y020651D01*
X018151Y022451D02*
X018055Y022472D01*
X018151Y022451D02*
X018651Y022451D01*
X017851Y018651D02*
X017351Y018651D01*
X017851Y018651D02*
X018047Y018383D01*
X016851Y018651D02*
X016768Y018777D01*
X016851Y018651D02*
X015851Y018651D01*
X015721Y018659D01*
X016851Y016651D02*
X016931Y016612D01*
X016851Y016651D02*
X017351Y016151D01*
X017351Y012651D01*
X017326Y012676D01*
X018064Y014280D02*
X018351Y014151D01*
X018701Y014151D01*
X018751Y010151D02*
X018351Y010151D01*
X018107Y009885D01*
X018351Y005651D02*
X018072Y005528D01*
X018351Y005651D02*
X018751Y005651D01*
X010901Y005651D02*
X010401Y005651D01*
X010292Y005468D01*
X010288Y009862D02*
X010401Y010151D01*
X010901Y010151D01*
X010401Y014151D02*
X010344Y014164D01*
X010401Y014151D02*
X010851Y014851D01*
X010450Y015534D02*
X010401Y015651D01*
X010401Y016651D01*
X010361Y016475D01*
X010401Y018151D02*
X010281Y018288D01*
X010401Y018151D02*
X010901Y018151D01*
X010431Y019653D02*
X010401Y019651D01*
X010401Y020651D01*
X010388Y020680D01*
X010230Y022419D02*
X010401Y022651D01*
X010901Y022651D01*
X010278Y026511D02*
X010401Y026651D01*
X010901Y026651D01*
X018084Y026567D02*
X018351Y026651D01*
X018851Y026651D01*
D19*
X018851Y026651D03*
X018651Y022451D03*
X017351Y018651D03*
X018701Y014151D03*
X018751Y010151D03*
X018751Y005651D03*
X010901Y005651D03*
X010901Y010151D03*
X010851Y014851D03*
X010901Y018151D03*
X010901Y022651D03*
X010901Y026651D03*
D20*
X011701Y001851D02*
X002075Y001851D01*
X002075Y005955D01*
X011701Y004401D02*
X011701Y001851D01*
X018301Y001851D01*
X019451Y002851D01*
X019451Y004506D01*
X019451Y008681D01*
X019451Y013147D01*
X019451Y017296D01*
X019451Y021322D01*
X019451Y025412D01*
X011701Y025472D02*
X011701Y021351D01*
X011701Y017151D01*
X011701Y013151D01*
X011701Y008751D01*
X011701Y004401D01*
M02*
